<svg width="74" height="17" viewBox="0 0 74 17" fill="none" xmlns="http://www.w3.org/2000/svg">
<path d="M12.0996 11.8789C12.0996 11.8789 13.1738 11.8789 15.3223 11.8789C14.7428 13.2266 13.8379 14.2943 12.6074 15.082C11.3835 15.8698 10.013 16.2637 8.49609 16.2637C7.78646 16.2637 7.0931 16.1725 6.41602 15.9902C5.74544 15.8079 5.12695 15.5508 4.56055 15.2188C3.99414 14.8867 3.47005 14.4863 2.98828 14.0176C2.51302 13.5423 2.10938 13.0247 1.77734 12.4648C1.44531 11.8984 1.1849 11.2832 0.996094 10.6191C0.813802 9.94857 0.722656 9.26172 0.722656 8.55859C0.722656 7.52995 0.924479 6.54688 1.32812 5.60938C1.73177 4.67188 2.27214 3.86458 2.94922 3.1875C3.6263 2.51042 4.43359 1.97005 5.37109 1.56641C6.30859 1.16276 7.29167 0.960938 8.32031 0.960938C9.2513 0.960938 10.1465 1.11719 11.0059 1.42969C11.8717 1.73568 12.6497 2.17839 13.3398 2.75781C13.8086 3.16146 14.1862 3.55859 14.4727 3.94922C14.7591 4.33984 15.0423 4.8444 15.3223 5.46289H12.2559C11.7546 4.81185 11.1979 4.33984 10.5859 4.04688C9.97396 3.7474 9.23828 3.59766 8.37891 3.59766C6.83594 3.59766 5.60872 4.13802 4.69727 5.21875C4.31966 5.65495 4.02018 6.17253 3.79883 6.77148C3.58398 7.37044 3.47656 7.97266 3.47656 8.57812C3.47656 9.48307 3.69792 10.3229 4.14062 11.0977C4.58333 11.8724 5.18555 12.4876 5.94727 12.9434C6.70898 13.3926 7.53906 13.6172 8.4375 13.6172C9.14714 13.6172 9.7819 13.4837 10.3418 13.2168C10.9082 12.9499 11.4941 12.5039 12.0996 11.8789ZM17.4512 16C17.4512 16 17.4512 11.0749 17.4512 1.22461C17.4512 1.22461 18.3659 1.22461 20.1953 1.22461C20.1953 1.22461 20.1953 3.21029 20.1953 7.18164C20.1953 7.18164 21.9564 7.18164 25.4785 7.18164C25.4785 7.18164 25.4785 5.19596 25.4785 1.22461C25.4785 1.22461 26.39 1.22461 28.2129 1.22461C28.2129 1.22461 28.2129 6.14974 28.2129 16C28.2129 16 27.3014 16 25.4785 16C25.4785 16 25.4785 13.9329 25.4785 9.79883C25.4785 9.79883 23.7174 9.79883 20.1953 9.79883C20.1953 9.79883 20.1953 11.8659 20.1953 16C20.1953 16 19.2806 16 17.4512 16ZM31.0449 16C31.0449 16 31.0449 11.0749 31.0449 1.22461C31.0449 1.22461 31.9596 1.22461 33.7891 1.22461C33.7891 1.22461 33.7891 6.14974 33.7891 16C33.7891 16 32.8743 16 31.0449 16ZM36.6309 16C36.6309 16 36.6309 11.0749 36.6309 1.22461C36.6309 1.22461 37.5456 1.22461 39.375 1.22461C39.375 1.22461 39.375 5.27734 39.375 13.3828C39.375 13.3828 40.8822 13.3828 43.8965 13.3828C43.8965 13.3828 43.8965 14.2552 43.8965 16C43.8965 16 41.4746 16 36.6309 16ZM45.7129 16C45.7129 16 45.7129 11.0749 45.7129 1.22461C45.7129 1.22461 46.8424 1.22461 49.1016 1.22461C51.5169 1.22461 53.3138 1.60872 54.4922 2.37695C55.4753 3.00846 56.2305 3.86784 56.7578 4.95508C57.2917 6.03581 57.5586 7.26302 57.5586 8.63672C57.5586 10.1602 57.2266 11.5046 56.5625 12.6699C55.9049 13.8288 54.9902 14.6849 53.8184 15.2383C53.2194 15.5117 52.5618 15.707 51.8457 15.8242C51.1361 15.9414 50.2409 16 49.1602 16H45.7129ZM48.457 13.3828H49.0527C50.6283 13.3828 51.8294 13.1615 52.6562 12.7188C53.3138 12.3607 53.8346 11.8138 54.2188 11.0781C54.6029 10.3424 54.7949 9.52865 54.7949 8.63672C54.7949 7.66667 54.5866 6.80729 54.1699 6.05859C53.7533 5.30339 53.1771 4.74349 52.4414 4.37891C52.0247 4.17708 51.5592 4.03711 51.0449 3.95898C50.5306 3.88086 49.847 3.8418 48.9941 3.8418H48.457V13.3828Z" fill="white"/>
<path d="M70.3809 11.8789C70.3809 11.8789 71.4551 11.8789 73.6035 11.8789C73.0241 13.2266 72.1191 14.2943 70.8887 15.082C69.6647 15.8698 68.2943 16.2637 66.7773 16.2637C66.0677 16.2637 65.3743 16.1725 64.6973 15.9902C64.0267 15.8079 63.4082 15.5508 62.8418 15.2188C62.2754 14.8867 61.7513 14.4863 61.2695 14.0176C60.7943 13.5423 60.3906 13.0247 60.0586 12.4648C59.7266 11.8984 59.4661 11.2832 59.2773 10.6191C59.0951 9.94857 59.0039 9.26172 59.0039 8.55859C59.0039 7.52995 59.2057 6.54688 59.6094 5.60938C60.013 4.67188 60.5534 3.86458 61.2305 3.1875C61.9076 2.51042 62.7148 1.97005 63.6523 1.56641C64.5898 1.16276 65.5729 0.960938 66.6016 0.960938C67.5326 0.960938 68.4277 1.11719 69.2871 1.42969C70.153 1.73568 70.931 2.17839 71.6211 2.75781C72.0898 3.16146 72.4674 3.55859 72.7539 3.94922C73.0404 4.33984 73.3236 4.8444 73.6035 5.46289H70.5371C70.0358 4.81185 69.4792 4.33984 68.8672 4.04688C68.2552 3.7474 67.5195 3.59766 66.6602 3.59766C65.1172 3.59766 63.89 4.13802 62.9785 5.21875C62.6009 5.65495 62.3014 6.17253 62.0801 6.77148C61.8652 7.37044 61.7578 7.97266 61.7578 8.57812C61.7578 9.48307 61.9792 10.3229 62.4219 11.0977C62.8646 11.8724 63.4668 12.4876 64.2285 12.9434C64.9902 13.3926 65.8203 13.6172 66.7188 13.6172C67.4284 13.6172 68.0632 13.4837 68.623 13.2168C69.1895 12.9499 69.7754 12.5039 70.3809 11.8789Z" fill="url(#paint0_linear_1_328)"/>
<defs>
<linearGradient id="paint0_linear_1_328" x1="37.5" y1="-5" x2="37.5" y2="22" gradientUnits="userSpaceOnUse">
<stop stop-color="#C2A97D"/>
<stop offset="1" stop-color="#A67C46"/>
</linearGradient>
</defs>
</svg>
