<svg width="17" height="15" viewBox="0 0 17 15" fill="none" xmlns="http://www.w3.org/2000/svg">
<path d="M14.3926 5.92436C13.9771 4.94855 13.3284 4.08966 12.5035 3.42308C11.6786 2.7565 10.7027 2.30261 9.66136 2.10125L10.602 0.59625L9.648 0L8.40681 1.98591C7.14251 1.99177 5.90763 2.36791 4.85475 3.06785C3.80186 3.76779 2.97711 4.76086 2.48238 5.92436C1.81971 5.93695 1.18843 6.20904 0.724237 6.68214C0.260044 7.15524 0 7.79158 0 8.45438C0 9.11717 0.260044 9.75351 0.724237 10.2266C1.18843 10.6997 1.81971 10.9718 2.48238 10.9844C2.97922 12.1527 3.80871 13.149 4.86759 13.8494C5.92647 14.5497 7.16797 14.9231 8.4375 14.9231C9.70704 14.9231 10.9485 14.5497 12.0074 13.8494C13.0663 13.149 13.8958 12.1527 14.3926 10.9844C15.0553 10.9718 15.6866 10.6997 16.1508 10.2266C16.615 9.75351 16.875 9.11717 16.875 8.45438C16.875 7.79158 16.615 7.15524 16.1508 6.68214C15.6866 6.20904 15.0553 5.93695 14.3926 5.92436ZM15.3472 9.4391C15.0899 9.70225 14.7392 9.85335 14.3712 9.85961L13.6426 9.87346L13.3574 10.544C12.947 11.5093 12.2618 12.3325 11.3869 12.9112C10.5121 13.4899 9.48641 13.7984 8.43752 13.7984C7.38863 13.7984 6.36292 13.4899 5.4881 12.9112C4.61328 12.3325 3.92802 11.5093 3.51763 10.544L3.23237 9.87346L2.50376 9.85961C2.13562 9.85272 1.78489 9.70164 1.52698 9.43885C1.26907 9.17607 1.12458 8.82258 1.12458 8.45438C1.12458 8.08617 1.26907 7.73268 1.52698 7.4699C1.78489 7.20711 2.13562 7.05603 2.50376 7.04914L3.23237 7.03529L3.51763 6.36472C3.92803 5.39946 4.6133 4.57625 5.48812 3.99759C6.36293 3.41894 7.38864 3.1104 8.43752 3.1104C9.4864 3.1104 10.5121 3.41894 11.3869 3.99759C12.2617 4.57625 12.947 5.39946 13.3574 6.36472L13.6426 7.03529L14.3712 7.04914C14.6458 7.05433 14.9129 7.13986 15.1394 7.29515C15.3659 7.45045 15.5419 7.6687 15.6457 7.92295C15.7495 8.1772 15.7766 8.45629 15.7235 8.72574C15.6705 8.99519 15.5396 9.2432 15.3472 9.4391Z" fill="white"/>
<path d="M6.75 7.0481H5.34375V8.45435H6.75V7.0481Z" fill="white"/>
<path d="M11.5313 7.0481H10.125V8.45435H11.5313V7.0481Z" fill="white"/>
<path d="M8.4375 12.3918C8.80684 12.3918 9.17257 12.3191 9.5138 12.1778C9.85503 12.0364 10.1651 11.8292 10.4262 11.5681C10.6874 11.3069 10.8946 10.9969 11.0359 10.6556C11.1773 10.3144 11.25 9.94869 11.25 9.57935H5.625C5.625 9.94869 5.69775 10.3144 5.83909 10.6556C5.98043 10.9969 6.1876 11.3069 6.44876 11.5681C6.97621 12.0955 7.69158 12.3918 8.4375 12.3918Z" fill="white"/>
</svg>
